<?xml version="1.0" encoding="UTF-8"?>
<svg id="Layer_1" data-name="Layer 1" xmlns="http://www.w3.org/2000/svg" viewBox="0 0 825.34 773.33">
  <defs>
    <style>
      .cls-1 {
        fill: #ff4d00;
      }

      .cls-2 {
        fill: #505050;
      }

      .cls-3 {
        fill: none;
      }
    </style>
  </defs>
  <path class="cls-2" d="M815.56,211.8c-65.13,5.13-130.34,9.08-195.58,11.86v454.32h-145.32V227.92c-59.96.97-71.94.94-131.9-.08v450.14h-145.32V223.44c-60.33-2.62-120.63-6.26-180.87-10.89-1.57-.12-3.14-.25-4.72-.37l4.72-122.4c106.57,8.39,213.32,13.57,320.12,15.53,64.02,1.2,80.04,1.23,144.05.1,108.5-1.9,216.96-7.11,325.22-15.63,3.2,40.68,6.4,81.35,9.6,122.02Z"/>
  <path class="cls-1" d="M709.27,588.78c0,49.27-39.94,89.21-89.21,89.21s-89.21-39.94-89.21-89.21,39.94-89.21,89.21-89.21,89.21,39.94,89.21,89.21"/>
  <line class="cls-3" x1="11.85" y1="212.18" x2="11.84" y2="212.55"/>
</svg>